<svg width="64" height="64" viewBox="0 0 64 64" fill="none" xmlns="http://www.w3.org/2000/svg">
  <rect width="64" height="64" rx="16" fill="#2D2D2D"/>
  <path d="M20 20C20 17.7909 21.7909 16 24 16H40C42.2091 16 44 17.7909 44 20V28C44 30.2091 42.2091 32 40 32H36L32 36L28 32H24C21.7909 32 20 30.2091 20 28V20Z" fill="#4ECDC4"/>
  <path d="M44 44C44 46.2091 42.2091 48 40 48H24C21.7909 48 20 46.2091 20 44V36C20 33.7909 21.7909 32 24 32H28L32 36L36 32H40C42.2091 32 44 33.7909 44 36V44Z" fill="#7C5DFA"/>
  <path d="M28 24H36M28 28H32" stroke="white" stroke-width="2" stroke-linecap="round"/>
  <path d="M28 40H36M28 44H32" stroke="white" stroke-width="2" stroke-linecap="round"/>
</svg> 